<?xml version="1.0" encoding="UTF-8" standalone="no"?>
<svg
   xmlns:dc="http://purl.org/dc/elements/1.1/"
   xmlns:cc="http://creativecommons.org/ns#"
   xmlns:rdf="http://www.w3.org/1999/02/22-rdf-syntax-ns#"
   xmlns:svg="http://www.w3.org/2000/svg"
   xmlns="http://www.w3.org/2000/svg"
   xmlns:sodipodi="http://sodipodi.sourceforge.net/DTD/sodipodi-0.dtd"
   xmlns:inkscape="http://www.inkscape.org/namespaces/inkscape"
   width="297mm"
   height="210mm"
   viewBox="0 0 297 210"
   version="1.1"
   id="svg8"
   inkscape:version="1.0.1 (c497b03c, 2020-09-10)"
   sodipodi:docname="git-memo.svg"
   inkscape:export-filename="/Users/yrm/Desktop/git-memo.png"
   inkscape:export-xdpi="96"
   inkscape:export-ydpi="96">
  <defs
     id="defs2">
    <marker
       style="overflow:visible"
       id="marker4091"
       refX="0.0"
       refY="0.0"
       orient="auto"
       inkscape:stockid="Arrow2Sstart"
       inkscape:isstock="true">
      <path
         transform="scale(0.3) translate(-2.3,0)"
         d="M 8.7185878,4.0337352 L -2.2072895,0.016013256 L 8.7185884,-4.0017078 C 6.9730900,-1.6296469 6.9831476,1.6157441 8.7185878,4.0337352 z "
         style="fill-rule:evenodd;stroke-width:0.625;stroke-linejoin:round;stroke:#848484;stroke-opacity:1;fill:#848484;fill-opacity:1"
         id="path4089" />
    </marker>
    <marker
       style="overflow:visible"
       id="marker3991"
       refX="0.0"
       refY="0.0"
       orient="auto"
       inkscape:stockid="Arrow2Sstart"
       inkscape:isstock="true"
       inkscape:collect="always">
      <path
         transform="scale(0.3) translate(-2.3,0)"
         d="M 8.7185878,4.0337352 L -2.2072895,0.016013256 L 8.7185884,-4.0017078 C 6.9730900,-1.6296469 6.9831476,1.6157441 8.7185878,4.0337352 z "
         style="fill-rule:evenodd;stroke-width:0.625;stroke-linejoin:round;stroke:#848484;stroke-opacity:1;fill:#848484;fill-opacity:1"
         id="path3989" />
    </marker>
    <marker
       style="overflow:visible"
       id="Arrow2Sstart"
       refX="0.0"
       refY="0.0"
       orient="auto"
       inkscape:stockid="Arrow2Sstart"
       inkscape:isstock="true"
       inkscape:collect="always">
      <path
         transform="scale(0.3) translate(-2.3,0)"
         d="M 8.7185878,4.0337352 L -2.2072895,0.016013256 L 8.7185884,-4.0017078 C 6.9730900,-1.6296469 6.9831476,1.6157441 8.7185878,4.0337352 z "
         style="fill-rule:evenodd;stroke-width:0.625;stroke-linejoin:round;stroke:#848484;stroke-opacity:1;fill:#848484;fill-opacity:1"
         id="path2857" />
    </marker>
    <marker
       style="overflow:visible"
       id="marker3470"
       refX="0.0"
       refY="0.0"
       orient="auto"
       inkscape:stockid="Arrow2Mstart"
       inkscape:isstock="true">
      <path
         transform="scale(0.6) translate(0,0)"
         d="M 8.7185878,4.0337352 L -2.2072895,0.016013256 L 8.7185884,-4.0017078 C 6.9730900,-1.6296469 6.9831476,1.6157441 8.7185878,4.0337352 z "
         style="fill-rule:evenodd;stroke-width:0.625;stroke-linejoin:round;stroke:#848484;stroke-opacity:1;fill:#848484;fill-opacity:1"
         id="path3468" />
    </marker>
    <marker
       style="overflow:visible"
       id="marker3201"
       refX="0.0"
       refY="0.0"
       orient="auto"
       inkscape:stockid="Arrow2Mstart"
       inkscape:isstock="true">
      <path
         transform="scale(0.6) translate(0,0)"
         d="M 8.7185878,4.0337352 L -2.2072895,0.016013256 L 8.7185884,-4.0017078 C 6.9730900,-1.6296469 6.9831476,1.6157441 8.7185878,4.0337352 z "
         style="fill-rule:evenodd;stroke-width:0.625;stroke-linejoin:round;stroke:#848484;stroke-opacity:1;fill:#848484;fill-opacity:1"
         id="path3199" />
    </marker>
    <marker
       style="overflow:visible"
       id="Arrow2Mstart"
       refX="0.0"
       refY="0.0"
       orient="auto"
       inkscape:stockid="Arrow2Mstart"
       inkscape:isstock="true">
      <path
         transform="scale(0.6) translate(0,0)"
         d="M 8.7185878,4.0337352 L -2.2072895,0.016013256 L 8.7185884,-4.0017078 C 6.9730900,-1.6296469 6.9831476,1.6157441 8.7185878,4.0337352 z "
         style="fill-rule:evenodd;stroke-width:0.625;stroke-linejoin:round;stroke:#848484;stroke-opacity:1;fill:#848484;fill-opacity:1"
         id="path2851" />
    </marker>
    <marker
       style="overflow:visible"
       id="Arrow1Sstart"
       refX="0.0"
       refY="0.0"
       orient="auto"
       inkscape:stockid="Arrow1Sstart"
       inkscape:isstock="true">
      <path
         transform="scale(0.2) translate(6,0)"
         style="fill-rule:evenodd;stroke:#848484;stroke-width:1pt;stroke-opacity:1;fill:#848484;fill-opacity:1"
         d="M 0.0,0.0 L 5.0,-5.0 L -12.5,0.0 L 5.0,5.0 L 0.0,0.0 z "
         id="path2839" />
    </marker>
    <marker
       style="overflow:visible"
       id="Arrow1Mstart"
       refX="0.0"
       refY="0.0"
       orient="auto"
       inkscape:stockid="Arrow1Mstart"
       inkscape:isstock="true">
      <path
         transform="scale(0.4) translate(10,0)"
         style="fill-rule:evenodd;stroke:#848484;stroke-width:1pt;stroke-opacity:1;fill:#848484;fill-opacity:1"
         d="M 0.0,0.0 L 5.0,-5.0 L -12.5,0.0 L 5.0,5.0 L 0.0,0.0 z "
         id="path2833" />
    </marker>
    <marker
       style="overflow:visible"
       id="Arrow1Lstart"
       refX="0.0"
       refY="0.0"
       orient="auto"
       inkscape:stockid="Arrow1Lstart"
       inkscape:isstock="true">
      <path
         transform="scale(0.8) translate(12.5,0)"
         style="fill-rule:evenodd;stroke:#848484;stroke-width:1pt;stroke-opacity:1;fill:#848484;fill-opacity:1"
         d="M 0.0,0.0 L 5.0,-5.0 L -12.5,0.0 L 5.0,5.0 L 0.0,0.0 z "
         id="path2827" />
    </marker>
    <marker
       style="overflow:visible"
       id="marker3201-4"
       refX="0"
       refY="0"
       orient="auto"
       inkscape:stockid="Arrow2Mstart"
       inkscape:isstock="true">
      <path
         transform="scale(0.6)"
         d="M 8.7185878,4.0337352 -2.2072895,0.01601326 8.7185884,-4.0017078 c -1.7454984,2.3720609 -1.7354408,5.6174519 -6e-7,8.035443 z"
         style="fill:#848484;fill-opacity:1;fill-rule:evenodd;stroke:#848484;stroke-width:0.625;stroke-linejoin:round;stroke-opacity:1"
         id="path3199-1" />
    </marker>
    <marker
       style="overflow:visible"
       id="marker3201-8"
       refX="0"
       refY="0"
       orient="auto"
       inkscape:stockid="Arrow2Mstart"
       inkscape:isstock="true">
      <path
         transform="scale(0.6)"
         d="M 8.7185878,4.0337352 -2.2072895,0.01601326 8.7185884,-4.0017078 c -1.7454984,2.3720609 -1.7354408,5.6174519 -6e-7,8.035443 z"
         style="fill:#848484;fill-opacity:1;fill-rule:evenodd;stroke:#848484;stroke-width:0.625;stroke-linejoin:round;stroke-opacity:1"
         id="path3199-3" />
    </marker>
    <marker
       style="overflow:visible"
       id="Arrow2Sstart-2"
       refX="0"
       refY="0"
       orient="auto"
       inkscape:stockid="Arrow2Sstart"
       inkscape:isstock="true">
      <path
         transform="matrix(0.3,0,0,0.3,-0.69,0)"
         d="M 8.7185878,4.0337352 -2.2072895,0.01601326 8.7185884,-4.0017078 c -1.7454984,2.3720609 -1.7354408,5.6174519 -6e-7,8.035443 z"
         style="fill:#848484;fill-opacity:1;fill-rule:evenodd;stroke:#848484;stroke-width:0.625;stroke-linejoin:round;stroke-opacity:1"
         id="path2857-6" />
    </marker>
    <marker
       style="overflow:visible"
       id="Arrow2Sstart-7"
       refX="0"
       refY="0"
       orient="auto"
       inkscape:stockid="Arrow2Sstart"
       inkscape:isstock="true">
      <path
         transform="matrix(0.3,0,0,0.3,-0.69,0)"
         d="M 8.7185878,4.0337352 -2.2072895,0.01601326 8.7185884,-4.0017078 c -1.7454984,2.3720609 -1.7354408,5.6174519 -6e-7,8.035443 z"
         style="fill:#848484;fill-opacity:1;fill-rule:evenodd;stroke:#848484;stroke-width:0.625;stroke-linejoin:round;stroke-opacity:1"
         id="path2857-8" />
    </marker>
    <marker
       style="overflow:visible"
       id="Arrow2Sstart-1"
       refX="0"
       refY="0"
       orient="auto"
       inkscape:stockid="Arrow2Sstart"
       inkscape:isstock="true">
      <path
         transform="matrix(0.3,0,0,0.3,-0.69,0)"
         d="M 8.7185878,4.0337352 -2.2072895,0.01601326 8.7185884,-4.0017078 c -1.7454984,2.3720609 -1.7354408,5.6174519 -6e-7,8.035443 z"
         style="fill:#848484;fill-opacity:1;fill-rule:evenodd;stroke:#848484;stroke-width:0.625;stroke-linejoin:round;stroke-opacity:1"
         id="path2857-7" />
    </marker>
  </defs>
  <sodipodi:namedview
     id="base"
     pagecolor="#ffffff"
     bordercolor="#666666"
     borderopacity="1.0"
     inkscape:pageopacity="1"
     inkscape:pageshadow="2"
     inkscape:zoom="1"
     inkscape:cx="577.5206"
     inkscape:cy="391.71298"
     inkscape:document-units="mm"
     inkscape:current-layer="layer1"
     inkscape:document-rotation="0"
     showgrid="false"
     inkscape:window-width="1920"
     inkscape:window-height="1147"
     inkscape:window-x="0"
     inkscape:window-y="25"
     inkscape:window-maximized="1" />
  <metadata
     id="metadata5">
    <rdf:RDF>
      <cc:Work
         rdf:about="">
        <dc:format>image/svg+xml</dc:format>
        <dc:type
           rdf:resource="http://purl.org/dc/dcmitype/StillImage" />
        <dc:title></dc:title>
      </cc:Work>
    </rdf:RDF>
  </metadata>
  <g
     inkscape:label="Layer 1"
     inkscape:groupmode="layer"
     id="layer1"
     style="display:inline">
    <rect
       style="display:inline;fill:#ebebeb;fill-opacity:1;stroke:none;stroke-width:0.758595;stroke-linecap:round;stroke-linejoin:round;stroke-miterlimit:4;stroke-dasharray:none;stroke-opacity:1"
       id="rect4271-6"
       width="60.589592"
       height="55.562481"
       x="213.78331"
       y="11.773967"
       ry="1.4324704" />
    <rect
       style="fill:#ebebeb;fill-opacity:1;stroke:none;stroke-width:2.12453;stroke-linecap:round;stroke-linejoin:round;stroke-miterlimit:4;stroke-dasharray:none;stroke-opacity:1"
       id="rect4271"
       width="157.16249"
       height="168.01041"
       x="24.870829"
       y="29.104164"
       ry="4.3315187" />
    <g
       id="g4305"
       transform="translate(-7.9375,-7.6729167)">
      <path
         style="fill:#000000;stroke-width:0.162856"
         d="m 244.03146,48.320017 c -6.06235,-6.06235 -6.63861,-6.68529 -6.63861,-7.17638 0,-0.29577 0.081,-0.69784 0.18005,-0.89349 0.22659,-0.44765 8.47294,-8.74281 8.69138,-8.74281 0.0885,0 0.83043,0.66668 1.64866,1.48151 1.47697,1.47082 1.48713,1.48648 1.40991,2.17157 -0.0907,0.80459 0.24537,1.5815 0.8576,1.98265 l 0.40375,0.26455 v 3.80266 c 0,3.66901 -0.0118,3.80895 -0.33443,3.98164 -0.48515,0.25965 -0.96711,1.13317 -0.96781,1.75413 -0.002,1.68989 1.8801,2.71561 3.26736,1.78074 1.08895,-0.73384 1.23648,-2.31726 0.30289,-3.25085 l -0.47659,-0.4766 v -3.77028 -3.77028 l 1.36154,1.35447 1.36155,1.35447 -0.0103,0.84049 c -0.0168,1.36339 0.79303,2.22477 2.09147,2.22477 0.89759,0 1.53165,-0.41216 1.89391,-1.23109 0.26581,-0.60091 0.28977,-0.82506 0.1455,-1.36083 -0.27484,-1.02068 -1.54046,-1.84849 -2.40609,-1.57375 -0.21479,0.0682 -0.70179,-0.31806 -1.83178,-1.45277 -1.40758,-1.41345 -1.5351,-1.59326 -1.49121,-2.10267 0.10096,-1.17176 -0.92157,-2.21134 -2.1762,-2.2125 -0.61097,-5.7e-4 -0.75988,-0.10641 -2.23962,-1.59172 l -1.58513,-1.591099 1.3439,-1.322265 c 1.50211,-1.477921 1.81953,-1.684062 2.59312,-1.684062 0.49108,0 1.11402,0.576258 7.17637,6.638606 6.06236,6.06235 6.63861,6.68529 6.63861,7.17638 0,0.29577 -0.081,0.69784 -0.17991,0.89349 -0.25599,0.50614 -12.35077,12.62446 -12.88121,12.90628 -0.24187,0.1285 -0.68058,0.23364 -0.97491,0.23364 -0.48764,0 -1.12453,-0.58937 -7.17376,-6.6386 z"
         id="path4277" />
      <text
         xml:space="preserve"
         style="font-style:normal;font-weight:normal;font-size:5.2878px;line-height:1.25;font-family:sans-serif;fill:#000000;fill-opacity:1;stroke:none;stroke-width:0.132195"
         x="234.07204"
         y="60.955505"
         id="text2774"><tspan
           sodipodi:role="line"
           id="tspan2772"
           x="234.07204"
           y="60.955505"
           style="stroke-width:0.132195">リモートRepo</tspan></text>
    </g>
    <g
       id="g2804"
       transform="translate(-24.341667,-35.454167)">
      <g
         id="g2793">
        <path
           id="rect2786"
           style="fill:#000000;fill-opacity:1;stroke-width:0.264583"
           d="m 80.433331,110.86041 h 20.637499 l 10.58333,10.58333 H 69.849998 Z"
           sodipodi:nodetypes="ccccc" />
        <rect
           style="fill:#000000;fill-opacity:1;stroke-width:0.264583"
           id="rect2789"
           width="41.841938"
           height="4.0927567"
           x="69.849998"
           y="121.97291" />
      </g>
      <text
         xml:space="preserve"
         style="font-style:normal;font-weight:normal;font-size:10.5833px;line-height:1.25;font-family:sans-serif;fill:#000000;fill-opacity:1;stroke:none;stroke-width:0.264583"
         x="76.199997"
         y="137.05417"
         id="text2797"><tspan
           sodipodi:role="line"
           id="tspan2795"
           x="76.199997"
           y="137.05417"
           style="stroke-width:0.264583">stage</tspan></text>
    </g>
    <g
       id="g2823"
       transform="translate(38.364583,63.764583)">
      <g
         id="g2812"
         transform="translate(-8.73125,-19.84375)">
        <rect
           style="fill:#000000;fill-opacity:1;stroke-width:0.264583"
           id="rect2806"
           width="44.185417"
           height="32.014584"
           x="48.154167"
           y="93.662498"
           ry="5.2916665" />
        <rect
           style="fill:#000000;fill-opacity:1;stroke-width:0.31238"
           id="rect2808"
           width="21.695833"
           height="12.170834"
           x="48.154167"
           y="90.222916"
           ry="6.0854168" />
      </g>
      <text
         xml:space="preserve"
         style="font-style:normal;font-weight:normal;font-size:10.5833px;line-height:1.25;font-family:sans-serif;fill:#000000;fill-opacity:1;stroke:none;stroke-width:0.264583"
         x="48.154163"
         y="116.41667"
         id="text2816"><tspan
           sodipodi:role="line"
           id="tspan2814"
           x="48.154163"
           y="116.41667"
           style="stroke-width:0.264583">work</tspan></text>
    </g>
    <path
       style="fill:none;stroke:#848484;stroke-width:2.11667;stroke-linecap:round;stroke-linejoin:round;stroke-miterlimit:4;stroke-dasharray:none;stroke-opacity:1;marker-start:url(#marker3991)"
       d="M 212.725,42.33333 172.50833,56.620831"
       id="path2825"
       sodipodi:nodetypes="cc" />
    <path
       style="fill:none;stroke:#848484;stroke-width:2.11667;stroke-linecap:round;stroke-linejoin:round;stroke-miterlimit:4;stroke-dasharray:none;stroke-opacity:1;marker-start:url(#marker4091)"
       d="M 177.73506,68.019317 217.22292,53.710418"
       id="path2825-8"
       sodipodi:nodetypes="cc" />
    <path
       style="fill:none;stroke:#848484;stroke-width:2.11667;stroke-linecap:round;stroke-linejoin:round;stroke-miterlimit:4;stroke-dasharray:none;stroke-opacity:1;marker-start:url(#Arrow2Sstart)"
       d="m 110.26631,78.338063 -19.579173,7e-6"
       id="path2825-5"
       sodipodi:nodetypes="cc" />
    <path
       style="fill:none;stroke:#848484;stroke-width:2.11667;stroke-linecap:round;stroke-linejoin:round;stroke-miterlimit:4;stroke-dasharray:none;stroke-opacity:1;marker-start:url(#Arrow2Sstart-7)"
       d="m 79.432236,109.0185 11.377077,20.90209"
       id="path2825-5-4"
       sodipodi:nodetypes="cc" />
    <path
       style="fill:none;stroke:#848484;stroke-width:2.11667;stroke-linecap:round;stroke-linejoin:round;stroke-miterlimit:4;stroke-dasharray:none;stroke-opacity:1;marker-start:url(#Arrow2Sstart-1)"
       d="m 115.41557,128.59766 16.40417,-22.48957"
       id="path2825-5-1"
       sodipodi:nodetypes="cc" />
    <text
       xml:space="preserve"
       style="font-style:normal;font-weight:normal;font-size:8.13393px;line-height:1.25;font-family:sans-serif;fill:#848484;fill-opacity:1;stroke:none;stroke-width:0.203349"
       x="193.49174"
       y="70.887512"
       id="text4203"><tspan
         sodipodi:role="line"
         id="tspan4201"
         x="193.49174"
         y="70.887512"
         style="fill:#848484;fill-opacity:1;stroke-width:0.203349">fetch</tspan></text>
    <text
       xml:space="preserve"
       style="font-style:normal;font-weight:normal;font-size:8.13393px;line-height:1.25;font-family:sans-serif;fill:#848484;fill-opacity:1;stroke:none;stroke-width:0.203349"
       x="176.59618"
       y="44.597752"
       id="text4203-8"><tspan
         sodipodi:role="line"
         id="tspan4201-2"
         x="176.59618"
         y="44.597752"
         style="fill:#848484;fill-opacity:1;stroke-width:0.203349">push</tspan></text>
    <text
       xml:space="preserve"
       style="font-style:normal;font-weight:normal;font-size:8.13393px;line-height:1.25;font-family:sans-serif;fill:#848484;fill-opacity:1;stroke:none;stroke-width:0.203349"
       x="79.494102"
       y="71.056084"
       id="text4203-9"><tspan
         sodipodi:role="line"
         id="tspan4201-8"
         x="79.494102"
         y="71.056084"
         style="fill:#848484;fill-opacity:1;stroke-width:0.203349">commit</tspan></text>
    <text
       xml:space="preserve"
       style="font-style:normal;font-weight:normal;font-size:8.13393px;line-height:1.25;font-family:sans-serif;fill:#848484;fill-opacity:1;stroke:none;stroke-width:0.203349"
       x="64.677429"
       y="124.23733"
       id="text4203-2"><tspan
         sodipodi:role="line"
         id="tspan4201-0"
         x="64.677429"
         y="124.23733"
         style="fill:#848484;fill-opacity:1;stroke-width:0.203349">add</tspan></text>
    <text
       xml:space="preserve"
       style="font-style:normal;font-weight:normal;font-size:8.13393px;line-height:1.25;font-family:sans-serif;fill:#848484;fill-opacity:1;stroke:none;stroke-width:0.203349"
       x="126.58994"
       y="122.91442"
       id="text4203-7"><tspan
         sodipodi:role="line"
         id="tspan4201-4"
         x="126.58994"
         y="122.91442"
         style="fill:#848484;fill-opacity:1;stroke-width:0.203349">checkout</tspan></text>
    <g
       id="g4300"
       transform="translate(-7.9375,-7.6729167)">
      <text
         xml:space="preserve"
         style="font-style:normal;font-weight:normal;font-size:7.95227px;line-height:1.25;font-family:sans-serif;fill:#000000;fill-opacity:1;stroke:none;stroke-width:0.198807"
         x="120.47285"
         y="106.12569"
         id="text2770"><tspan
           sodipodi:role="line"
           id="tspan2768"
           x="120.47285"
           y="106.12569"
           style="stroke-width:0.198807">ローカルRepo</tspan></text>
      <path
         style="display:inline;fill:#000000;stroke-width:0.263428"
         d="m 134.9266,85.73589 c -9.80618,-9.806182 -10.73831,-10.813822 -10.73831,-11.608187 0,-0.478424 0.13102,-1.128794 0.29124,-1.445269 0.36652,-0.724098 13.70544,-14.141973 14.05878,-14.141973 0.14316,0 1.34327,1.078391 2.6668,2.396423 2.38908,2.379132 2.40552,2.404463 2.28061,3.512633 -0.14671,1.301469 0.3969,2.558163 1.38721,3.207045 l 0.65309,0.427924 v 6.151011 c 0,5.934824 -0.0191,6.161185 -0.54096,6.44052 -0.78476,0.419999 -1.56435,1.832965 -1.56548,2.837402 -0.003,2.733489 3.04116,4.392647 5.28513,2.880444 1.76144,-1.187026 2.00007,-3.748295 0.48994,-5.258428 l -0.77091,-0.770926 V 74.265875 68.16724 l 2.20237,2.19093 2.20238,2.190929 -0.0167,1.359539 c -0.0272,2.205358 1.28277,3.598687 3.38306,3.598687 1.4519,0 2.47753,-0.666691 3.06351,-1.991356 0.42996,-0.972004 0.46872,-1.334579 0.23535,-2.201217 -0.44457,-1.651005 -2.49178,-2.990033 -3.89198,-2.545626 -0.34744,0.110317 -1.13519,-0.51448 -2.96301,-2.349935 -2.27683,-2.286333 -2.4831,-2.577185 -2.41211,-3.401184 0.16331,-1.895384 -1.49069,-3.576963 -3.52012,-3.57884 -0.98828,-9.41e-4 -1.22915,-0.172122 -3.62271,-2.574694 l -2.56403,-2.57369 2.17383,-2.138836 c 2.42974,-2.390618 2.94319,-2.724062 4.19451,-2.724062 0.79435,0 1.80199,0.932129 11.60817,10.73831 9.8062,9.806181 10.73832,10.813821 10.73832,11.608186 0,0.478424 -0.13103,1.128794 -0.29102,1.445269 -0.41408,0.818709 -19.97804,20.420756 -20.83606,20.876614 -0.39124,0.207855 -1.10087,0.377925 -1.57697,0.377925 -0.78878,0 -1.81899,-0.953338 -11.60395,-10.738299 z"
         id="path4277-3" />
    </g>
  </g>
</svg>
